inDegrees=yes
name=ik_lifting_orientations
DataType=double
version=3
OpenSimVersion=4.5-2024-01-10-34fd6af
endheader
time	pelvis_tilt	pelvis_list	pelvis_rotation	pelvis_tx	pelvis_ty	pelvis_tz	hip_flexion_r	hip_adduction_r	hip_rotation_r	knee_angle_r	knee_angle_r_beta	ankle_angle_r	subtalar_angle_r	mtp_angle_r	hip_flexion_l	hip_adduction_l	hip_rotation_l	knee_angle_l	knee_angle_l_beta	ankle_angle_l	subtalar_angle_l	mtp_angle_l	lumbar_extension	lumbar_bending	lumbar_rotation	arm_flex_r	arm_add_r	arm_rot_r	elbow_flex_r	pro_sup_r	wrist_flex_r	wrist_dev_r	arm_flex_l	arm_add_l	arm_rot_l	elbow_flex_l	pro_sup_l	wrist_flex_l	wrist_dev_l
1.11	-1.406524640551712	1.479242851042648	87.02796957269723	0	0.9400000003403366	0	43.57294736852003	-10.93055709136541	0	56.56605678149497	0.9872639357071539	-5.376082890116672	0	0	43.57294736852003	-10.93055709136541	0	56.56605678149497	0.9872639357071539	-5.376082890116672	0	0	5.829826719773486	5.857728774088009	-1.572468253931265	-4.309712856168307	-18.10142740845658	12.31794849956103	34.88600932450402	-8.275131140122632	0	0	0	-9.506983558144185	0	75.040008577527	8.274920898995958	0	0
1.12	-1.248495591709072	1.315800765700376	86.86332779162838	0	0.9400000003403366	0	43.57335108174686	-10.92963514923002	0	56.56682019491775	0.9872772597849352	-5.375596862714793	0	0	43.57335108174686	-10.92963514923002	0	56.56682019491775	0.9872772597849352	-5.375596862714793	0	0	6.142290179808177	6.198531959486035	-1.543627756186882	-3.574215918610082	-18.62333683247331	13.02752012046088	35.82265845985376	-8.273490357632864	0	0	0	-9.507779981464735	0	75.03999731294959	8.27328011649926	0	0
1.13	-1.171711268846952	1.230832062540154	87.59235521522237	0	0.9400000003403366	0	43.57376575847143	-10.92869012728297	0	56.56760524785893	0.9872909615435613	-5.375098946684242	0	0	43.57376575847143	-10.92869012728297	0	56.56760524785893	0.9872909615435613	-5.375098946684242	0	0	6.395972615284297	6.283262076511416	-2.386741186206736	-2.946347786088341	-18.99305405679056	13.64999321820505	37.05488121963274	-8.271804193862716	0	0	0	-9.508598787668427	0	75.03998574245082	8.271593952721991	0	0
1.14	-1.029745040266679	1.080666068943556	87.61432365263546	0	0.9400000003403366	0	43.58037065135673	-10.91827846687209	0	56.58337918263305	0.9875662686413645	-5.3700521903813	0	0	43.58037065135673	-10.91827846687209	0	56.58337918263305	0.9875662686413645	-5.3700521903813	0	0	6.644653007913029	6.508624271333368	-2.544216194252485	-2.164297003417277	-19.33163063465422	14.38886638970887	38.29134045442107	-8.242385649047989	0	0	0	-9.524049769348574	0	75.03980141348121	8.242175407784009	0	0
1.15	-0.9179475715968269	0.95381173933539	88.21105138557495	0	0.9400000003403366	0	43.58881772700416	-10.90526472546091	0	56.60369022271232	0.9879207631652525	-5.363788918532006	0	0	43.58881772700416	-10.90526472546091	0	56.60369022271232	0.9879207631652525	-5.363788918532006	0	0	6.791993951012458	6.503322779274865	-3.26300029803973	-1.484071893223176	-19.71333224038309	14.85481618373291	39.83519739287145	-8.2046082166509	0	0	0	-9.543952944886527	0	75.03956567085991	8.204397975228702	0	0
1.16	-0.7776465590874121	0.7944102956662807	88.17889669385688	0	0.9400000003403366	0	43.59587127333497	-10.89442498155556	0	56.62061623121716	0.9882161777428824	-5.35857680757357	0	0	43.59587127333497	-10.89442498155556	0	56.62061623121716	0.9882161777428824	-5.35857680757357	0	0	6.90345619923131	6.563129717662888	-3.506274022479279	-0.3957391712718296	-19.89657173966376	15.89893303518683	41.18193938477302	-8.173052328723591	0	0	0	-9.560581914370099	0	75.03936881900854	8.172842087169242	0	0
1.17	-0.6950572794316212	0.7168255658803087	88.9427111324373	0	0.9400000003403366	0	43.60431315770698	-10.88154658928755	0	56.64086769391402	0.9885696324452874	-5.352400561104713	0	0	43.60431315770698	-10.88154658928755	0	56.64086769391402	0.9885696324452874	-5.352400561104713	0	0	6.940072024976362	6.39392033810341	-4.603560622177057	0.7154188079661361	-19.96774926105854	17.00792965514198	42.7175896006061	-8.135243569487214	0	0	0	-9.580521647990867	0	75.03913322058378	8.135033327774522	0	0
1.18	-0.6139637212736279	0.6274396427409729	89.33951055002181	0	0.9400000003403366	0	43.61278383725165	-10.86875529494222	0	56.66120328987883	0.9889245555502286	-5.346286720069219	0	0	43.61278383725165	-10.86875529494222	0	56.66120328987883	0.9889245555502286	-5.346286720069219	0	0	6.924403545733973	6.222087607750343	-5.545681954018984	1.901542988319285	-19.89403579144694	18.29969235133984	44.51431545842819	-8.097241958138408	0	0	0	-9.600588010728965	0	75.03889681771111	8.097031716266594	0	0
1.19	-0.5189211479760734	0.521771015484583	89.27913709972128	0	0.9400000003403366	0	43.62085989347802	-10.85671401999468	0	56.68062837463122	0.9892635872366368	-5.340554816851292	0	0	43.62085989347802	-10.85671401999468	0	56.68062837463122	0.9892635872366368	-5.340554816851292	0	0	6.811773920753429	6.093763540112485	-5.876737292990603	3.068319124324351	-19.85262692338664	19.37304383532263	46.53211476582685	-8.060931777246825	0	0	0	-9.619792505128244	0	75.03867142712447	8.06072153522299	0	0
1.2	-0.4563625457698106	0.4589930844160856	89.35614178839595	0	0.9400000003403366	0	43.62903932460661	-10.84462794239159	0	56.70030958801837	0.9896070892110301	-5.334818755149334	0	0	43.62903932460661	-10.84462794239159	0	56.70030958801837	0.9896070892110301	-5.334818755149334	0	0	6.628655876879607	5.86890315362976	-6.387984914987221	4.306148144899891	-19.76572167627043	20.42183188030542	48.63756295122921	-8.024102358294057	0	0	0	-9.639292811273934	0	75.0384431508258	8.023892116116057	0	0
1.21	-0.3823815250623032	0.3881372332234556	89.70344191013197	0	0.9400000003403366	0	43.63731040209758	-10.83250100525491	0	56.72020604357716	0.9899543478700078	-5.329078487961685	0	0	43.63731040209758	-10.83250100525491	0	56.72020604357716	0.9899543478700078	-5.329078487961685	0	0	6.466796502456553	5.626122351642859	-7.167084809807071	5.506837796473168	-19.68616114487138	21.28513199907268	51.03675976918659	-7.986814221489954	0	0	0	-9.659053653111783	0	75.03821231625184	7.98660397915588	0	0
1.22	-0.3006048644318224	0.3053307980896875	89.8981336251405	0	0.9400000003403366	0	43.64576927624815	-10.82018751007003	0	56.74054048438901	0.9903092508137264	-5.323264509610145	0	0	43.64576927624815	-10.82018751007003	0	56.74054048438901	0.9903092508137264	-5.323264509610145	0	0	6.257843514212492	5.366988279742209	-7.855869684078019	6.720487882558691	-19.66264567408872	22.0878070504296	53.65135369561328	-7.948637309617109	0	0	0	-9.679301403839393	0	75.03797624002898	7.948427067123262	0	0
1.23	-0.2625136280446674	0.2515985033101751	89.77156739270868	0	0.9400000003403366	0	43.65415509923898	-10.80814816174519	0	56.76074596408991	0.990661902961452	-5.317605027617594	0	0	43.65415509923898	-10.80814816174519	0	56.76074596408991	0.990661902961452	-5.317605027617594	0	0	5.93925218087103	5.069543308881266	-8.22218371487846	7.971647826001797	-19.7097768241677	22.80906757046014	56.39894557758993	-7.910699537171929	0	0	0	-9.699458350246898	0	75.03774220147648	7.910489294519345	0	0
1.24	-0.1217934421067284	0.1160934333226795	89.59278466565509	0	0.9400000003403366	0	43.65450245586134	-10.80742035026443	0	56.7614045681081	0.9906733977700363	-5.317232146151374	0	0	43.65450245586134	-10.80742035026443	0	56.7614045681081	0.9906733977700363	-5.317232146151374	0	0	5.661527699993172	4.832905335237686	-8.642787494441219	9.290606622571646	-19.76966127282834	23.46251155729822	59.22407418091242	-7.909268047811465	0	0	0	-9.700160769802364	0	75.03773250889304	7.909057805152846	0	0
1.25	-0.05177035613466888	0.06235391629000188	89.50155144606792	0	0.9400000003403366	0	43.65492629170886	-10.80653151652116	0	56.76220724063585	0.9906874070484609	-5.316776761803882	0	0	43.65492629170886	-10.80653151652116	0	56.76220724063585	0.9906874070484609	-5.316776761803882	0	0	5.296636366478937	4.51056747275071	-9.086822581893163	10.61514113714261	-19.95652096156521	23.91783602374919	62.01795736698878	-7.907522038633037	0	0	0	-9.701017210690793	0	75.03772068225237	7.907311795967061	0	0
1.26	0.04542670129813473	-0.02850915240783852	88.80365177540261	0	0.9400000003403366	0	43.65550413937617	-10.80531924430202	0	56.76330054434239	0.9907064887978642	-5.316155753792931	0	0	43.65550413937617	-10.80531924430202	0	56.76330054434239	0.9907064887978642	-5.316155753792931	0	0	4.978929627366965	4.328716085167482	-8.801756738895904	11.73074669481639	-20.28448854177478	24.04473408193047	64.98262498836975	-7.905142229052498	0	0	0	-9.702184214069563	0	75.03770455809862	7.904931986376489	0	0
1.27	0.05536390105553957	-0.0578533388961578	88.53164932062593	0	0.9400000003403366	0	43.65627202138312	-10.80370753445883	0	56.76475154170944	0.990731813479357	-5.315330293424306	0	0	43.65627202138312	-10.80370753445883	0	56.76475154170944	0.990731813479357	-5.315330293424306	0	0	4.507305995329615	4.033147538867656	-7.287639311853992	12.50899682257609	-21.12357677945366	22.53865914416323	67.66418685515548	-7.901980949176489	0	0	0	-9.703733852003859	0	75.03768313127185	7.901770706487152	0	0
1.28	0.1199321236298914	-0.1228362851257553	88.53805481978823	0	0.9400000003403366	0	43.65705436758066	-10.80206773831218	0	56.76622999258281	0.9907576173149263	-5.314490952626159	0	0	43.65705436758066	-10.80206773831218	0	56.76622999258281	0.9907576173149263	-5.314490952626159	0	0	4.311175775670077	3.909865007409809	-6.649955603686013	13.06606021190906	-22.14293475039512	21.48392409586685	70.34876631380499	-7.898759633151576	0	0	0	-9.705313077007531	0	75.03766130082766	7.898549390448653	0	0
1.29	0.1758328556111601	-0.1804913444420004	88.2336350134584	0	0.9400000003403366	0	43.65775649933048	-10.8005988963999	0	56.76755755910955	0.9907807877218572	-5.313739639976175	0	0	43.65775649933048	-10.8005988963999	0	56.76755755910955	0.9907807877218572	-5.313739639976175	0	0	3.876359628797192	3.639743134244781	-5.166346817200532	13.38448583608195	-23.29993422270036	19.74920300654068	72.92756373681657	-7.895867692472414	0	0	0	-9.706731180897929	0	75.03764170865675	7.895657449757294	0	0
1.3	0.2131687096055795	-0.2140512948763976	88.19595350291941	0	0.9400000003403366	0	43.65838334037893	-10.79928960826268	0	56.7687431745126	0.9908014806143027	-5.313070338137787	0	0	43.65838334037893	-10.79928960826268	0	56.7687431745126	0.9908014806143027	-5.313070338137787	0	0	3.455884600272516	3.313338816033795	-4.300693580555277	13.58299653415621	-24.5706845206451	18.2225812117773	75.38267599176015	-7.893285254928094	0	0	0	-9.707997743068683	0	75.03762421737416	7.893075012202082	0	0
1.31	0.1898649752013792	-0.1963826634293633	88.54381822580653	0	0.9400000003403366	0	43.65923766885145	-10.79750629338053	0	56.7703582871736	0.9908296696480279	-5.312159119385083	0	0	43.65923766885145	-10.79750629338053	0	56.7703582871736	0.9908296696480279	-5.312159119385083	0	0	3.035030809362554	2.891332052235173	-3.85238663148688	13.28880489684523	-25.98759123985982	16.52347520315336	77.88041418278249	-7.88976584246504	0	0	0	-9.709723681308997	0	75.03760037831213	7.889555599724182	0	0
1.32	0.2298462314900473	-0.2350352854687958	88.51226658698475	0	0.9400000003403366	0	43.66567909340288	-10.7879790005093	0	56.78558060471756	0.991095349208954	-5.307648491972493	0	0	43.66567909340288	-10.7879790005093	0	56.78558060471756	0.991095349208954	-5.307648491972493	0	0	2.69550403338849	2.600447267646762	-3.293959669004815	12.66340627541557	-27.63452755314397	14.8877715151325	80.32605886238787	-7.860814164966962	0	0	0	-9.725025436408757	0	75.03742060797296	7.860603922104886	0	0
